<svg xmlns="http://www.w3.org/2000/svg" viewBox="0 0 600 600" role="img" aria-label="Parody avatar for Hal Finney">
  <defs>
    <linearGradient id="bg" x1="0" x2="1" y1="0" y2="1">
      <stop offset="0" stop-color="#76e4ff"/>
      <stop offset="1" stop-color="#1b3764"/>
    </linearGradient>
    <filter id="shadow" x="-20%" y="-20%" width="140%" height="140%">
      <feDropShadow dx="0" dy="18" stdDeviation="18" flood-color="#06152b" flood-opacity="0.28"/>
    </filter>
  </defs>
  <rect width="600" height="600" rx="64" fill="url(#bg)"/>
  <circle cx="300" cy="250" r="112" fill="#fff5e7" opacity="0.96" filter="url(#shadow)"/>
  <path d="M145 526c20-96 80-150 155-150s135 54 155 150" fill="#081c3a" opacity="0.9"/>
  <circle cx="260" cy="245" r="11" fill="#081c3a"/>
  <circle cx="340" cy="245" r="11" fill="#081c3a"/>
  <path d="M260 300c31 24 63 24 94 0" fill="none" stroke="#081c3a" stroke-width="16" stroke-linecap="round"/>
  <path d="M189 187c60-90 182-98 238 0-70-29-151-30-238 0z" fill="#081c3a" opacity="0.82"/>
  <circle cx="464" cy="132" r="54" fill="#ffffff" opacity="0.88"/>
  <text x="464" y="150" text-anchor="middle" font-family="Arial Black, Impact, sans-serif" font-size="38" fill="#081c3a">HF</text>
  <text x="300" y="570" text-anchor="middle" font-family="Arial Black, Impact, sans-serif" font-size="31" fill="#ffffff" letter-spacing="1">PARODY</text>
</svg>